# xmcd
#
# Track frame offsets: 
#        150
#        17090
#        33002
#        55020
#        69222
#        86711
#        119159
#        138623
#        157510
#        172458
#        186987
#
# Disc length: 2642 seconds
#
# Revision: 1
# Processed by: cddbd v1.5.2PL0 Copyright (c) Steve Scherf et al.
# Submitted via: ExactAudioCopy v0.99pb4
#
DISCID=920a500b
DTITLE=Ella Fitzgerald - The Very Best of the Song Books [disc 2]
DYEAR=2006
DGENRE=Vocal Jazz
TTITLE0=Blue Skies
TTITLE1='S Wonderful
TTITLE2=Embraceable You
TTITLE3=I Got Rhythm
TTITLE4=The Man I Love
TTITLE5=Blues in the Night (My Mama Done Tol' Me)
TTITLE6=Over the Rainbow
TTITLE7=That Old Black Magic
TTITLE8=All the Things You Are
TTITLE9=Skylark
TTITLE10=Too Marvelous for Words
EXTD=Ella Fiztgerald (1917/1996): vocals\nRecorded 1956/1964 - recordin
EXTD=gs produced by Norman Granz (1918/2001).\nCompilation selected an
EXTD=d sequenced by Richard Seidel - supervised by Bryan Koniarz.\nMast
EXTD=ered by Bob Irwin and Jayme Pieruzzi at Sundazed Studios, Coxsack
EXTD=ie US-NY.\n2CD: Verve B0007423-02 (2006-12-05), UPC 602517052383,
EXTD=BMG D2220318.
EXTT0=(Irving Berlin)
EXTT1=(George Gershwin//Ira Gershwin)
EXTT2=(George Gershwin//Ira Gershwin)
EXTT3=(George Gershwin//Ira Gershwin)
EXTT4=(George Gershwin//Ira Gershwin)
EXTT5=(Harold Arlen//Johnny Mercer)
EXTT6=(Harold Arlen//Yip Harburg)
EXTT7=(Harold Arlen//Johnny Mercer)
EXTT8=(Jerome Kern//Oscar Hammerstein II)
EXTT9=(Hoagy Carmichael//Johnny Mercer)
EXTT10=(Richard A. Whiting//Johnny Mercer)
PLAYORDER=
